<svg xmlns="http://www.w3.org/2000/svg" viewBox="0 0 512 512">
  <defs>
    <linearGradient id="g" x1="0%" y1="0%" x2="100%" y2="100%">
      <stop offset="0%" stop-color="#FF4444" />
      <stop offset="100%" stop-color="#CC0000" />
    </linearGradient>
  </defs>
  <rect width="512" height="512" rx="128" fill="url(#g)" />
  <path fill="#ffffff" d="M371.3 147.2c-5.4-3.1-12.1-3.6-18-.1l-144 86.4c-6.1 3.7-9.3 10-9.3 16.5v136.2c-7.9-5-17.4-7.8-27.4-7.8-26.5 0-48 21.5-48 48s21.5 48 48 48 48-21.5 48-48V257.6l128-76.8v93.3c-7.9-5-17.4-7.8-27.4-7.8-26.5 0-48 21.5-48 48s21.5 48 48 48 48-21.5 48-48V161.4c0-6-3.8-11.4-9.3-14.2z" />
</svg>
